# xmcd
#
# Track frame offsets:
#	150
#	13885
#	29058
#	42957
#	61043
#	75698
#	89817
#	105407
#	118521
#	130738
#	143763
#	157796
#	171244
#	185660
#	196943
#
# Disc length: 2807 seconds
# Revision: 0
# Processed by: cddbd v1.5.2PL0 Copyright (c) Steve Scherf et al.
# Submitted via: dBpowerAMP V12.0
#
DISCID=c60af50f
DTITLE=Kitchen Help - Kitchen Help
DYEAR=2010
DGENRE=Bluegrass
TTITLE0=Are You Missing Me
TTITLE1=I'm Gone, Long Gone
TTITLE2=Childish Love
TTITLE3=A Few Old Memories
TTITLE4=Roustabout
TTITLE5=Old Swinging Bridge
TTITLE6=I Don't Want Your Rambling Letters
TTITLE7=Sophronie
TTITLE8=I Just Got Wise
TTITLE9=I Could Cry
TTITLE10=Hello City Limits
TTITLE11=All I Ever Loved Was You
TTITLE12=Rollin' On Rubber Wheels
TTITLE13=Does It Have To End This Way
TTITLE14=I've Waited As Long As I Can
EXTD=
EXTT0=
EXTT1=
EXTT2=
EXTT3=
EXTT4=
EXTT5=
EXTT6=
EXTT7=
EXTT8=
EXTT9=
EXTT10=
EXTT11=
EXTT12=
EXTT13=
EXTT14=
PLAYORDER=
